<?xml version="1.0" encoding="UTF-8" standalone="no"?>
<svg
   xmlns:dc="http://purl.org/dc/elements/1.1/"
   xmlns:cc="http://creativecommons.org/ns#"
   xmlns:rdf="http://www.w3.org/1999/02/22-rdf-syntax-ns#"
   xmlns:svg="http://www.w3.org/2000/svg"
   xmlns="http://www.w3.org/2000/svg"
   xmlns:sodipodi="http://sodipodi.sourceforge.net/DTD/sodipodi-0.dtd"
   xmlns:inkscape="http://www.inkscape.org/namespaces/inkscape"
   width="20"
   height="20"
   preserveAspectRatio="xMidYMid meet"
   viewBox="0 0 20 20"
   version="1.1"
   id="svg6"
   sodipodi:docname="palm-tree.svg"
   inkscape:version="1.0.1 (3bc2e813f5, 2020-09-07)">
  <metadata
     id="metadata12">
    <rdf:RDF>
      <cc:Work
         rdf:about="">
        <dc:format>image/svg+xml</dc:format>
        <dc:type
           rdf:resource="http://purl.org/dc/dcmitype/StillImage" />
      </cc:Work>
    </rdf:RDF>
  </metadata>
  <defs
     id="defs10" />
  <sodipodi:namedview
     pagecolor="#ffffff"
     bordercolor="#666666"
     borderopacity="1"
     objecttolerance="10"
     gridtolerance="10"
     guidetolerance="10"
     inkscape:pageopacity="0"
     inkscape:pageshadow="2"
     inkscape:window-width="1442"
     inkscape:window-height="1028"
     id="namedview8"
     showgrid="false"
     inkscape:zoom="9.1874052"
     inkscape:cx="14.961335"
     inkscape:cy="23.040497"
     inkscape:window-x="0"
     inkscape:window-y="0"
     inkscape:window-maximized="1"
     inkscape:current-layer="svg6" />
  <path
     d="m 10,7 c 1.870588,7.61 -2.3529412,13 -2.3529412,13 h 3.5294122 c 2.211764,-5.8 1.17647,-9.91 0.588235,-12 m 2.541176,-2.84 c 0.2,0.21 0.4,0.43 0.552942,0.66 a 8.3529412,7.1 0 0 1 -0.741177,8.44 8.3647059,7.11 0 0 0 -0.647059,-6.49 c -0.09412,-0.13 -0.2,-0.24 -0.294117,-0.36 A 8.38,7.123 0 0 0 10.635294,5.43 8.3847059,7.127 0 0 0 4.8,12.22 c 0,0.74 0.1294118,1.45 0.3647059,2.11 A 8.3211765,7.073 0 0 1 3.6,10.19 C 3.6,7.84 4.9411765,5.76 7,4.46 5.2941176,4.35 3.4823529,4.67 1.9058824,5.5 1.1764706,5.91 0.54117647,6.38 0,6.91 0.64705882,5.58 1.7647059,4.39 3.2941176,3.57 5.0588235,2.63 7.0588235,2.32 8.9882353,2.56 8.5058824,2 7.9176471,1.47 7.2117647,1 6.5294118,0.58 5.7882353,0.24 5.0117647,0 6.7058824,0.04 8.4,0.5 9.8470588,1.43 10.588235,1.9 11.176471,2.47 11.647059,3.07 c 0.117647,0 0.223529,-0.01 0.341176,-0.01 3.764706,0 6.952941,2.11 8.011765,5.02 A 8.3211765,7.073 0 0 0 14.305882,5.16 Z"
     fill="#626262"
     id="path2"
     style="fill:#16a085;fill-opacity:1;stroke-width:1.08465" />
</svg>
